<svg xmlns="http://www.w3.org/2000/svg" xmlns:xlink="http://www.w3.org/1999/xlink" viewBox="0 0 504 159.83"><defs><style>.cls-1{fill:url(#linear-gradient);}.cls-2{fill:url(#linear-gradient-2);}</style><linearGradient id="linear-gradient" x1="122.9" y1="79.91" x2="196.83" y2="79.91" gradientUnits="userSpaceOnUse"><stop offset="0" stop-color="#fdd03e"/><stop offset="1" stop-color="#f4bb4c"/></linearGradient><linearGradient id="linear-gradient-2" x1="247.56" y1="79.91" x2="274.66" y2="79.91" xlink:href="#linear-gradient"/></defs><title>LOGO BLACK</title><g id="Layer_2" data-name="Layer 2"><g id="LOGO_BLACK" data-name="LOGO BLACK"><g id="Layer_5" data-name="Layer 5"><polygon points="25.08 79.92 88.29 143.12 71.58 159.83 0.07 88.32 0 88.25 0 71.57 0.02 71.55 71.58 0 88.29 16.71 25.08 79.92"/><polygon points="359.04 79.92 295.83 143.12 312.54 159.83 384.05 88.32 384.12 88.25 384.12 71.57 384.1 71.55 312.54 0 295.83 16.71 359.04 79.92"/><path class="cls-1" d="M122.9,7.08V152.75h73.93V7.08Zm55.83,127.85H141V25.19h37.69Z"/><rect class="cls-2" x="247.56" y="7.08" width="27.1" height="145.67"/><rect x="412.46" y="6.25" width="23.71" height="146.16"/><rect x="442.94" y="1" width="61.06" height="23.52"/><rect x="442.92" y="68.65" width="61.08" height="23.41"/><rect x="442.1" y="106.75" width="11.63" height="43.03"/><rect x="446.08" y="140.72" width="57.92" height="18.11"/></g></g></g></svg>