<?xml version="1.0" standalone="no"?>
<!DOCTYPE svg PUBLIC "-//W3C//DTD SVG 20010904//EN"
 "http://www.w3.org/TR/2001/REC-SVG-20010904/DTD/svg10.dtd">
<svg version="1.0" xmlns="http://www.w3.org/2000/svg"
 width="1168.000000pt" height="710.000000pt" viewBox="0 0 1168.000000 710.000000"
 preserveAspectRatio="xMidYMid meet">

<g transform="translate(0.000000,710.000000) scale(0.100000,-0.100000)"
fill="#000000" stroke="none">
<path d="M8899 5383 c-13 -17 -13 -17 6 -3 11 8 22 16 24 17 2 2 0 3 -6 3 -6
0 -17 -8 -24 -17z"/>
<path d="M8937 5357 c-3 -8 1 -14 8 -14 7 0 11 6 8 14 -3 7 -6 13 -8 13 -2 0
-5 -6 -8 -13z"/>
<path d="M9015 5350 c-3 -5 -1 -10 4 -10 6 0 11 5 11 10 0 6 -2 10 -4 10 -3 0
-8 -4 -11 -10z"/>
<path d="M8837 5305 c-5 -11 -3 -14 5 -9 7 5 9 2 6 -8 -10 -25 6 -42 22 -23
11 13 10 14 -6 9 -18 -7 -18 -7 -1 13 9 11 17 24 17 29 0 5 -5 2 -10 -6 -8
-12 -12 -13 -19 -2 -7 11 -9 10 -14 -3z"/>
<path d="M8925 5290 c3 -5 8 -10 11 -10 2 0 4 5 4 10 0 6 -5 10 -11 10 -5 0
-7 -4 -4 -10z"/>
<path d="M9126 5271 c-3 -5 1 -14 9 -21 10 -9 15 -9 15 -1 0 6 -5 11 -11 11
-5 0 -7 5 -4 10 3 6 4 10 1 10 -3 0 -7 -4 -10 -9z"/>
<path d="M8900 5250 c0 -5 5 -10 10 -10 6 0 10 5 10 10 0 6 -4 10 -10 10 -5 0
-10 -4 -10 -10z"/>
<path d="M8786 5207 c3 -10 9 -15 12 -12 3 3 0 11 -7 18 -10 9 -11 8 -5 -6z"/>
<path d="M8995 5170 c3 -5 10 -10 16 -10 5 0 9 5 9 10 0 6 -7 10 -16 10 -8 0
-12 -4 -9 -10z"/>
<path d="M8752 5108 c-6 -6 -12 -19 -12 -27 0 -13 2 -13 16 1 9 9 15 21 13 27
-3 9 -8 8 -17 -1z"/>
<path d="M9053 5099 c-2 -23 3 -25 10 -4 4 8 3 16 -1 19 -4 3 -9 -4 -9 -15z"/>
<path d="M8980 5080 c6 -11 13 -20 16 -20 2 0 0 9 -6 20 -6 11 -13 20 -16 20
-2 0 0 -9 6 -20z"/>
<path d="M9029 5093 c-1 -5 -1 -11 0 -15 0 -5 -3 -8 -9 -8 -5 0 -10 -5 -10
-11 0 -8 4 -9 13 0 8 6 18 7 23 3 4 -4 3 0 -4 9 -6 9 -9 19 -5 22 3 4 3 7 0 7
-4 0 -8 -3 -8 -7z"/>
<path d="M8643 5055 c0 -8 4 -12 9 -9 5 3 6 10 3 15 -9 13 -12 11 -12 -6z"/>
<path d="M8659 5033 c-13 -16 -12 -17 4 -4 16 13 21 21 13 21 -2 0 -10 -8 -17
-17z"/>
<path d="M8689 5033 c-12 -16 -12 -17 2 -6 9 7 20 9 24 5 5 -4 5 -1 1 6 -9 16
-11 15 -27 -5z"/>
<path d="M8810 5010 c0 -5 5 -10 10 -10 6 0 10 5 10 10 0 6 -4 10 -10 10 -5 0
-10 -4 -10 -10z"/>
<path d="M7180 4999 c0 -5 -6 -7 -12 -3 -7 4 -9 3 -5 -1 13 -15 36 -14 30 1
-6 17 -13 18 -13 3z"/>
<path d="M7210 5005 c0 -2 10 -10 23 -16 20 -11 21 -11 8 4 -13 16 -31 23 -31
12z"/>
<path d="M7132 4970 c-9 -15 -9 -21 1 -26 6 -4 9 -4 5 1 -4 4 0 13 9 20 9 7
12 15 7 18 -6 3 -15 -3 -22 -13z"/>
<path d="M8574 4969 c-2 -4 4 -13 14 -20 9 -7 14 -9 10 -5 -4 5 -1 14 8 20 13
10 12 12 -6 12 -12 0 -23 -3 -26 -7z"/>
<path d="M8860 4972 c0 -6 11 -23 23 -38 17 -20 24 -23 24 -11 0 9 -4 14 -9
11 -4 -3 -8 1 -8 9 0 8 -7 20 -15 27 -10 8 -15 9 -15 2z"/>
<path d="M7240 4966 c0 -2 7 -9 15 -16 9 -7 15 -8 15 -2 0 5 -7 12 -15 16 -8
3 -15 4 -15 2z"/>
<path d="M8619 4953 c-13 -16 -12 -17 4 -4 16 13 21 21 13 21 -2 0 -10 -8 -17
-17z"/>
<path d="M8543 4925 c0 -8 4 -12 9 -9 5 3 6 10 3 15 -9 13 -12 11 -12 -6z"/>
<path d="M7294 4888 l-19 -23 23 19 c12 11 22 21 22 23 0 8 -8 2 -26 -19z"/>
<path d="M7100 4860 c20 -13 33 -13 25 0 -3 6 -14 10 -23 10 -15 0 -15 -2 -2
-10z"/>
<path d="M6998 4848 c5 -5 16 -8 23 -6 8 3 3 7 -10 11 -17 4 -21 3 -13 -5z"/>
<path d="M8691 4846 c-10 -12 -8 -13 8 -9 12 3 18 9 15 14 -7 12 -10 11 -23
-5z"/>
<path d="M8823 4853 c4 -3 -1 -16 -10 -27 -18 -21 -18 -21 4 -2 20 16 23 36 6
36 -4 0 -3 -3 0 -7z"/>
<path d="M8757 4834 c-8 -8 1 -24 14 -24 5 0 9 7 9 15 0 15 -12 20 -23 9z"/>
<path d="M8829 4813 c-13 -16 -12 -17 4 -4 16 13 21 21 13 21 -2 0 -10 -8 -17
-17z"/>
<path d="M7376 4802 c-3 -5 1 -9 9 -9 8 0 12 4 9 9 -3 4 -7 8 -9 8 -2 0 -6 -4
-9 -8z"/>
<path d="M8450 4806 c0 -2 7 -7 16 -10 8 -3 12 -2 9 4 -6 10 -25 14 -25 6z"/>
<path d="M7070 4761 c-7 -11 -18 -17 -23 -14 -6 3 -7 1 -3 -5 7 -12 36 -5 36
9 0 5 10 14 23 19 20 8 21 9 2 9 -11 1 -27 -8 -35 -18z"/>
<path d="M8734 4763 c20 -24 10 -32 -14 -10 -12 10 -12 9 -1 -5 7 -10 10 -26
7 -35 -5 -15 -4 -15 9 1 8 11 15 16 15 12 0 -15 28 14 33 35 5 19 4 20 -12 5
-16 -14 -19 -14 -36 2 -19 17 -19 17 -1 -5z"/>
<path d="M8427 4754 c-11 -11 -8 -26 3 -19 6 3 10 1 10 -6 0 -7 3 -10 6 -6 3
3 2 13 -3 22 -5 8 -12 12 -16 9z"/>
<path d="M7360 4745 c0 -5 5 -17 10 -25 5 -8 10 -10 10 -5 0 6 -5 17 -10 25
-5 8 -10 11 -10 5z"/>
<path d="M7086 4715 c4 -8 8 -15 10 -15 2 0 4 7 4 15 0 8 -4 15 -10 15 -5 0
-7 -7 -4 -15z"/>
<path d="M8376 4713 c-9 -9 -7 -33 3 -33 12 0 22 28 12 34 -5 3 -11 3 -15 -1z"/>
<path d="M7116 4697 c-16 -12 -16 -14 -3 -14 9 0 18 6 21 14 3 7 4 13 3 13 -2
0 -11 -6 -21 -13z"/>
<path d="M7184 4702 c-9 -5 -8 -10 1 -19 11 -10 13 -9 12 7 -1 11 -1 20 -2 20
0 0 -5 -4 -11 -8z"/>
<path d="M7446 4687 c3 -9 0 -25 -7 -35 -11 -14 -11 -15 1 -4 24 21 34 13 14
-10 -19 -23 -19 -23 2 -6 19 16 21 16 37 1 15 -15 16 -15 10 5 -5 21 -33 52
-33 36 0 -4 -7 1 -15 12 -13 16 -14 16 -9 1z"/>
<path d="M7147 4684 c7 -3 9 -12 6 -20 -4 -10 0 -12 11 -8 10 4 16 1 16 -7 0
-7 3 -9 7 -6 8 9 -26 47 -41 46 -7 0 -7 -2 1 -5z"/>
<path d="M8646 4675 c-9 -26 -7 -32 5 -12 6 10 9 21 6 23 -2 3 -7 -2 -11 -11z"/>
<path d="M7120 4646 c0 -2 7 -9 15 -16 9 -7 15 -8 15 -2 0 5 -7 12 -15 16 -8
3 -15 4 -15 2z"/>
<path d="M8378 4630 c-7 -24 -3 -38 8 -28 3 4 4 17 2 30 l-3 23 -7 -25z"/>
<path d="M8450 4621 c0 -5 -3 -18 -6 -28 -6 -16 -5 -16 9 2 19 23 21 35 7 35
-5 0 -10 -4 -10 -9z"/>
<path d="M8296 4598 c3 -5 10 -6 15 -3 13 9 11 12 -6 12 -8 0 -12 -4 -9 -9z"/>
<path d="M7540 4596 c0 -2 8 -10 18 -17 15 -13 16 -12 3 4 -13 16 -21 21 -21
13z"/>
<path d="M7477 4584 c-8 -8 1 -24 14 -24 5 0 9 7 9 15 0 15 -12 20 -23 9z"/>
<path d="M7533 4572 c10 -10 14 -22 10 -27 -5 -4 -2 -5 5 -1 11 6 10 12 -4 27
-9 10 -19 19 -22 19 -3 0 2 -8 11 -18z"/>
<path d="M7400 4565 c0 -10 29 -24 34 -17 3 6 -3 12 -14 15 -11 3 -20 4 -20 2z"/>
<path d="M7251 4507 c-13 -21 -13 -21 4 -7 17 14 18 13 11 -5 -5 -15 -4 -17 4
-8 8 7 9 17 3 27 -7 13 -10 12 -22 -7z"/>
<path d="M8573 4505 c0 -8 4 -12 9 -9 5 3 6 10 3 15 -9 13 -12 11 -12 -6z"/>
<path d="M7291 4494 c0 -11 3 -14 6 -6 3 7 2 16 -1 19 -3 4 -6 -2 -5 -13z"/>
<path d="M8224 4486 c1 -8 5 -18 8 -22 4 -3 5 1 4 10 -1 8 -5 18 -8 22 -4 3
-5 -1 -4 -10z"/>
<path d="M7601 4464 c-24 -31 -28 -52 -6 -34 8 7 15 19 15 27 0 8 4 12 8 9 5
-3 9 1 9 9 0 20 -2 19 -26 -11z"/>
<path d="M4411 4464 c-198 -42 -356 -184 -413 -369 -26 -81 -30 -241 -9 -315
74 -259 318 -426 596 -406 311 22 525 244 527 546 1 160 -50 290 -157 397
-133 133 -345 191 -544 147z m246 -99 c133 -31 241 -119 302 -245 35 -73 36
-78 36 -196 0 -118 -1 -121 -37 -195 -46 -93 -112 -160 -203 -205 -283 -140
-622 30 -664 332 -47 329 240 586 566 509z"/>
<path d="M5915 4474 c-231 -36 -405 -193 -461 -414 -22 -86 -15 -241 15 -324
56 -158 177 -273 348 -333 67 -23 94 -27 193 -27 99 0 126 4 193 27 234 81
377 279 377 522 0 306 -230 540 -540 550 -52 2 -108 1 -125 -1z m186 -104
c239 -46 403 -280 360 -518 -54 -304 -374 -466 -656 -333 -281 132 -344 518
-118 732 109 103 263 147 414 119z"/>
<path d="M2940 3925 l0 -545 55 0 55 0 0 230 0 230 283 2 282 3 3 48 3 47
-285 0 -286 0 0 215 0 215 318 2 317 3 0 45 0 45 -372 3 -373 2 0 -545z"/>
<path d="M7322 4429 c-19 -7 -23 -29 -6 -29 3 0 2 5 -1 10 -3 6 1 10 9 10 10
0 13 -6 9 -17 -6 -15 -5 -16 9 -3 9 8 12 17 7 18 -5 2 -7 8 -3 13 6 11 6 11
-24 -2z"/>
<path d="M8490 4430 c0 -5 5 -10 11 -10 5 0 7 5 4 10 -3 6 -8 10 -11 10 -2 0
-4 -4 -4 -10z"/>
<path d="M8479 4385 c-21 -17 -35 -35 -36 -52 -1 -14 -1 -24 0 -22 2 2 9 13
17 23 10 13 10 17 3 12 -7 -4 -13 -2 -13 3 0 6 3 11 8 11 8 1 70 50 61 50 -3
0 -21 -11 -40 -25z"/>
<path d="M7530 4390 c0 -5 5 -10 10 -10 6 0 10 5 10 10 0 6 -4 10 -10 10 -5 0
-10 -4 -10 -10z"/>
<path d="M7370 4376 c0 -2 8 -10 18 -17 15 -13 16 -12 3 4 -13 16 -21 21 -21
13z"/>
<path d="M7426 4363 c-6 -14 -5 -15 5 -6 7 7 10 15 7 18 -3 3 -9 -2 -12 -12z"/>
<path d="M7356 4351 c-4 -5 -2 -12 3 -15 5 -4 12 -2 15 3 4 5 2 12 -3 15 -5 4
-12 2 -15 -3z"/>
<path d="M8414 4349 c-3 -6 -2 -15 3 -20 5 -5 9 -1 9 11 0 23 -2 24 -12 9z"/>
<path d="M7730 4341 c0 -6 5 -11 11 -11 5 0 8 -4 4 -9 -3 -5 0 -13 7 -17 7 -4
10 -4 6 1 -4 4 -2 15 4 24 7 9 8 13 4 9 -5 -4 -15 -3 -23 3 -9 9 -13 8 -13 0z"/>
<path d="M7700 4320 c-6 -11 -8 -20 -6 -20 3 0 10 9 16 20 6 11 8 20 6 20 -3
0 -10 -9 -16 -20z"/>
<path d="M8116 4332 c5 -4 12 -11 15 -15 3 -5 9 -2 12 5 3 9 -3 14 -15 15 -11
1 -16 -1 -12 -5z"/>
<path d="M7462 4309 c2 -7 10 -15 17 -17 8 -3 12 1 9 9 -2 7 -10 15 -17 17 -8
3 -12 -1 -9 -9z"/>
<path d="M7773 4301 c0 -11 5 -18 9 -15 4 3 5 11 1 19 -7 21 -12 19 -10 -4z"/>
<path d="M8401 4310 c-2 -28 13 -39 29 -22 13 14 12 15 -2 9 -11 -4 -18 0 -21
11 -4 13 -5 13 -6 2z"/>
<path d="M7796 4253 c-6 -14 -5 -15 5 -6 7 7 10 15 7 18 -3 3 -9 -2 -12 -12z"/>
<path d="M8043 4255 c-17 -7 -35 -10 -39 -7 -5 4 -2 -1 5 -10 14 -18 27 -25
17 -9 -7 11 20 22 37 15 8 -3 14 2 14 11 0 8 -1 15 -1 15 -1 -1 -15 -7 -33
-15z"/>
<path d="M7715 4230 c-3 -5 1 -10 9 -10 9 0 16 5 16 10 0 6 -4 10 -9 10 -6 0
-13 -4 -16 -10z"/>
<path d="M7499 4208 c15 -20 2 -25 -17 -6 -8 8 -12 8 -12 1 0 -15 31 -26 42
-15 5 5 1 15 -9 23 -16 13 -17 12 -4 -3z"/>
<path d="M7985 4181 c-3 -5 -2 -12 3 -15 5 -3 9 1 9 9 0 17 -3 19 -12 6z"/>
<path d="M7845 4170 c-3 -6 1 -7 9 -4 18 7 21 14 7 14 -6 0 -13 -4 -16 -10z"/>
<path d="M8181 4154 c0 -11 3 -14 6 -6 3 7 2 16 -1 19 -3 4 -6 -2 -5 -13z"/>
<path d="M7966 4152 c-3 -5 1 -9 9 -9 8 0 12 4 9 9 -3 4 -7 8 -9 8 -2 0 -6 -4
-9 -8z"/>
<path d="M7562 4129 c-7 -11 -11 -24 -8 -27 3 -3 6 0 6 7 0 7 4 10 9 7 5 -3
15 2 22 11 8 9 9 14 2 10 -6 -4 -13 -3 -15 3 -2 6 -9 1 -16 -11z"/>
<path d="M8230 4129 c0 -5 5 -7 10 -4 6 3 10 8 10 11 0 2 -4 4 -10 4 -5 0 -10
-5 -10 -11z"/>
<path d="M7640 4104 c0 -8 5 -12 10 -9 6 4 8 11 5 16 -9 14 -15 11 -15 -7z"/>
<path d="M7587 4075 c-4 -8 -3 -16 1 -19 4 -3 9 4 9 15 2 23 -3 25 -10 4z"/>
<path d="M7652 4048 c2 -7 -4 -12 -12 -10 -8 2 -11 0 -7 -5 5 -4 12 -8 15 -7
4 1 13 -6 20 -15 11 -14 12 -13 3 5 -6 12 -8 24 -5 27 3 3 0 8 -6 12 -6 4 -9
1 -8 -7z"/>
<path d="M8080 4050 c0 -5 9 -10 20 -10 11 0 20 5 20 10 0 6 -9 10 -20 10 -11
0 -20 -4 -20 -10z"/>
<path d="M8210 4051 c0 -6 4 -13 10 -16 6 -3 7 1 4 9 -7 18 -14 21 -14 7z"/>
<path d="M8140 3986 c0 -12 5 -16 14 -13 8 3 17 2 20 -4 2 -5 4 -5 3 1 -2 7
-6 11 -11 10 -5 -1 -13 4 -17 12 -7 10 -9 8 -9 -6z"/>
<path d="M8085 3970 c-3 -5 -3 -15 0 -20 4 -6 -1 -22 -10 -36 -13 -20 -14 -28
-5 -40 7 -7 16 -11 22 -8 5 3 4 11 -3 20 -9 11 -8 15 4 20 12 4 14 11 6 31 -5
13 -7 29 -3 34 3 5 3 9 0 9 -3 0 -8 -4 -11 -10z"/>
<path d="M7677 3949 c7 -7 15 -10 18 -7 3 3 -2 9 -12 12 -14 6 -15 5 -6 -5z"/>
<path d="M7717 3889 c7 -7 15 -10 18 -7 3 3 -2 9 -12 12 -14 6 -15 5 -6 -5z"/>
<path d="M7756 3883 c-6 -14 -5 -15 5 -6 7 7 10 15 7 18 -3 3 -9 -2 -12 -12z"/>
<path d="M7726 3844 c-9 -24 -2 -26 12 -4 7 11 8 20 3 20 -5 0 -12 -7 -15 -16z"/>
<path d="M7811 3844 c0 -11 3 -14 6 -6 3 7 2 16 -1 19 -3 4 -6 -2 -5 -13z"/>
<path d="M8000 3846 c0 -2 7 -6 15 -10 8 -3 15 -1 15 4 0 6 -7 10 -15 10 -8 0
-15 -2 -15 -4z"/>
<path d="M7740 3816 c0 -16 28 -42 36 -33 7 6 -18 47 -28 47 -5 0 -8 -6 -8
-14z"/>
<path d="M8070 3795 c-8 -9 -8 -15 -2 -15 12 0 26 19 19 26 -2 2 -10 -2 -17
-11z"/>
<path d="M7649 3776 c-7 -9 -6 -47 2 -52 7 -4 10 -1 7 7 -3 8 1 21 8 30 12 13
12 16 -1 16 -8 0 -15 -1 -16 -1z"/>
<path d="M8194 3761 c0 -11 5 -17 13 -14 10 4 11 9 2 19 -15 18 -15 18 -15 -5z"/>
<path d="M7685 3750 c3 -5 8 -10 11 -10 2 0 4 5 4 10 0 6 -5 10 -11 10 -5 0
-7 -4 -4 -10z"/>
<path d="M7892 3690 c0 -14 2 -19 5 -12 2 6 2 18 0 25 -3 6 -5 1 -5 -13z"/>
<path d="M7942 3690 c0 -14 2 -19 5 -12 2 6 2 18 0 25 -3 6 -5 1 -5 -13z"/>
<path d="M8244 3663 c3 -18 24 -38 32 -31 3 4 3 15 0 26 -7 21 -35 26 -32 5z"/>
<path d="M7586 3661 c8 -8 44 -8 44 1 0 4 -11 7 -25 6 -13 -1 -22 -4 -19 -7z"/>
<path d="M7866 3652 c-3 -5 1 -9 9 -9 8 0 12 4 9 9 -3 4 -7 8 -9 8 -2 0 -6 -4
-9 -8z"/>
<path d="M7924 3635 c0 -13 4 -21 8 -19 5 3 5 10 2 16 -5 7 -1 9 9 5 23 -9 22
0 -1 12 -15 8 -18 6 -18 -14z"/>
<path d="M8316 3588 c3 -5 10 -6 15 -3 13 9 11 12 -6 12 -8 0 -12 -4 -9 -9z"/>
<path d="M7982 3580 c10 -6 15 -18 12 -28 -4 -12 -2 -12 7 3 17 27 17 28 -11
31 -21 3 -22 2 -8 -6z"/>
<path d="M7844 3562 c4 -6 -2 -19 -14 -29 -11 -10 -20 -21 -20 -26 0 -13 29
12 41 34 6 12 5 20 -3 25 -7 4 -8 3 -4 -4z"/>
<path d="M8323 3528 c1 -15 6 -23 11 -18 4 4 4 16 -2 26 -9 16 -10 14 -9 -8z"/>
<path d="M7456 3517 c3 -10 9 -15 12 -12 3 3 0 11 -7 18 -10 9 -11 8 -5 -6z"/>
<path d="M7720 3521 c0 -6 4 -13 10 -16 6 -3 7 1 4 9 -7 18 -14 21 -14 7z"/>
<path d="M7778 3513 c-3 -12 0 -20 8 -20 16 0 17 6 5 25 -6 11 -9 9 -13 -5z"/>
<path d="M8386 3523 c-4 -5 -13 -8 -18 -8 -6 0 -13 -7 -15 -15 -4 -13 -3 -13
6 0 6 8 11 11 11 6 0 -5 6 -3 13 3 8 6 18 7 22 3 5 -4 5 -1 1 6 -8 14 -10 15
-20 5z"/>
<path d="M8125 3510 c-3 -5 -1 -10 4 -10 6 0 11 5 11 10 0 6 -2 10 -4 10 -3 0
-8 -4 -11 -10z"/>
<path d="M7765 3471 c-3 -5 -2 -12 3 -15 5 -3 9 1 9 9 0 17 -3 19 -12 6z"/>
<path d="M7405 3459 c-3 -4 2 -6 10 -5 21 3 28 13 10 13 -9 0 -18 -4 -20 -8z"/>
<path d="M8320 3464 c0 -5 7 -18 15 -28 8 -11 15 -16 15 -10 0 5 -7 18 -15 28
-8 11 -15 16 -15 10z"/>
<path d="M8417 3463 c-9 -9 -9 -43 1 -43 4 0 14 5 22 10 13 8 12 10 -2 10 -10
0 -18 5 -18 11 0 5 5 7 12 3 7 -4 8 -3 4 4 -8 14 -10 14 -19 5z"/>
<path d="M7408 3433 c7 -3 16 -2 19 1 4 3 -2 6 -13 5 -11 0 -14 -3 -6 -6z"/>
<path d="M7690 3421 c0 -6 4 -13 10 -16 6 -3 7 1 4 9 -7 18 -14 21 -14 7z"/>
<path d="M8145 3411 c-3 -5 -2 -12 3 -15 5 -3 9 1 9 9 0 17 -3 19 -12 6z"/>
<path d="M7630 3390 c-8 -5 -11 -12 -8 -16 10 -9 38 3 38 16 0 12 -10 13 -30
0z"/>
<path d="M8185 3380 c3 -5 11 -10 16 -10 6 0 7 5 4 10 -3 6 -11 10 -16 10 -6
0 -7 -4 -4 -10z"/>
<path d="M8280 3369 c0 -5 5 -7 10 -4 6 3 10 8 10 11 0 2 -4 4 -10 4 -5 0 -10
-5 -10 -11z"/>
<path d="M7316 3353 c-6 -14 -5 -15 5 -6 7 7 10 15 7 18 -3 3 -9 -2 -12 -12z"/>
<path d="M7653 3333 c10 -16 -25 -26 -35 -11 -7 10 -9 10 -6 -1 6 -21 21 -23
42 -8 15 11 16 16 6 22 -8 5 -11 4 -7 -2z"/>
<path d="M8219 3327 c-6 -18 -5 -37 3 -48 8 -11 9 -11 5 3 -7 22 3 30 20 16
11 -8 12 -7 7 5 -4 13 -32 32 -35 24z"/>
<path d="M7345 3310 c-3 -5 -1 -10 4 -10 6 0 11 5 11 10 0 6 -2 10 -4 10 -3 0
-8 -4 -11 -10z"/>
<path d="M8306 3311 c-4 -7 -5 -15 -2 -18 9 -9 19 4 14 18 -4 11 -6 11 -12 0z"/>
<path d="M7570 3300 c0 -5 9 -14 20 -20 16 -8 20 -8 18 2 -5 23 -38 39 -38 18z"/>
<path d="M8506 3301 c-4 -7 -5 -15 -2 -18 9 -9 19 4 14 18 -4 11 -6 11 -12 0z"/>
<path d="M7260 3281 c-7 -15 -7 -22 2 -27 7 -4 10 -4 6 1 -4 4 -3 16 3 26 5
11 7 19 5 19 -3 0 -10 -9 -16 -19z"/>
<path d="M7307 3273 c-4 -3 -7 -11 -7 -17 0 -6 5 -5 12 2 6 6 9 14 7 17 -3 3
-9 2 -12 -2z"/>
<path d="M8520 3266 c0 -2 7 -6 15 -10 8 -3 15 -1 15 4 0 6 -7 10 -15 10 -8 0
-15 -2 -15 -4z"/>
<path d="M8560 3257 c0 -2 6 -10 14 -16 11 -9 16 -9 22 1 4 7 4 10 -1 6 -4 -4
-14 -3 -22 3 -7 6 -13 9 -13 6z"/>
<path d="M7213 3223 c-12 -13 -18 -23 -12 -23 6 0 7 -5 3 -11 -4 -8 0 -8 15 0
25 14 28 23 4 14 -16 -6 -16 -4 1 15 26 30 17 34 -11 5z"/>
<path d="M8247 3236 c-3 -8 1 -17 9 -20 24 -9 27 -7 15 7 -6 8 -8 17 -4 20 3
4 2 7 -4 7 -6 0 -13 -6 -16 -14z"/>
<path d="M8623 3201 c0 -11 5 -18 9 -15 4 3 5 11 1 19 -7 21 -12 19 -10 -4z"/>
<path d="M7270 3189 c0 -5 -4 -7 -10 -4 -5 3 -10 1 -10 -4 0 -6 7 -11 15 -11
8 0 15 7 15 15 0 8 -2 15 -5 15 -3 0 -5 -5 -5 -11z"/>
<path d="M8560 3190 c0 -5 5 -12 10 -15 6 -3 10 -1 10 5 0 6 6 8 13 4 6 -4 8
-3 4 1 -10 12 -37 15 -37 5z"/>
<path d="M7327 3184 c-4 -4 -7 -17 -7 -28 0 -19 1 -19 17 -3 12 11 14 20 7 27
-6 6 -13 7 -17 4z"/>
<path d="M7523 3170 c-1 -11 2 -22 6 -24 4 -3 7 4 6 14 -2 27 -10 33 -12 10z"/>
<path d="M8497 3170 c8 -29 25 -37 21 -9 -1 12 -8 24 -15 26 -7 3 -9 -3 -6
-17z"/>
<path d="M8297 3166 c-3 -8 -2 -18 3 -21 13 -8 20 9 11 24 -6 10 -10 9 -14 -3z"/>
<path d="M7165 3160 c-4 -6 1 -7 11 -3 14 5 16 2 10 -23 -5 -24 -4 -26 5 -11
12 20 6 47 -10 47 -5 0 -13 -4 -16 -10z"/>
<path d="M8654 3148 c2 -13 -2 -30 -8 -38 -9 -13 -9 -13 6 -2 11 9 18 10 23 2
3 -5 12 -10 18 -10 7 0 4 6 -5 14 -14 10 -15 15 -5 25 9 9 9 14 -3 21 -23 15
-30 12 -26 -12z m21 3 c3 -5 2 -12 -3 -15 -5 -3 -9 1 -9 9 0 17 3 19 12 6z"/>
<path d="M7139 3113 c-13 -16 -12 -17 4 -4 9 7 17 15 17 17 0 8 -8 3 -21 -13z"/>
<path d="M7270 3110 c-13 -8 -12 -10 3 -10 9 0 17 5 17 10 0 12 -1 12 -20 0z"/>
<path d="M8550 3110 c0 -5 5 -10 11 -10 5 0 7 5 4 10 -3 6 -8 10 -11 10 -2 0
-4 -4 -4 -10z"/>
<path d="M7420 3091 c0 -6 7 -7 17 -4 10 4 14 2 9 -5 -3 -6 -2 -13 3 -16 5 -4
8 2 7 11 -3 19 -36 32 -36 14z"/>
<path d="M8371 3086 c-8 -10 -9 -16 -1 -21 6 -4 9 -1 8 6 -2 7 8 16 22 20 22
6 23 7 4 8 -12 1 -27 -5 -33 -13z"/>
<path d="M8460 3075 c0 -8 5 -15 10 -15 6 0 10 7 10 15 0 8 -4 15 -10 15 -5 0
-10 -7 -10 -15z"/>
<path d="M8736 3051 c-3 -5 2 -15 12 -22 15 -12 16 -12 5 2 -7 9 -10 19 -6 22
3 4 4 7 0 7 -3 0 -8 -4 -11 -9z"/>
<path d="M8433 3007 c-6 -10 17 -28 31 -24 5 2 10 10 11 18 3 16 -33 21 -42 6z
m32 -15 c-3 -3 -11 0 -18 7 -9 10 -8 11 6 5 10 -3 15 -9 12 -12z"/>
<path d="M8804 2965 c0 -40 1 -42 15 -16 7 13 7 23 -2 35 -10 14 -12 12 -13
-19z"/>
<path d="M7081 2974 c0 -11 3 -14 6 -6 3 7 2 16 -1 19 -3 4 -6 -2 -5 -13z"/>
<path d="M7004 2958 c-4 -7 -4 -10 1 -6 4 4 15 2 24 -5 14 -11 14 -10 2 6 -16
20 -18 21 -27 5z"/>
<path d="M7373 2955 c0 -8 4 -12 9 -9 5 3 6 10 3 15 -9 13 -12 11 -12 -6z"/>
<path d="M7286 2931 c-3 -4 1 -17 8 -27 11 -14 12 -22 3 -34 -6 -8 -2 -6 11 4
22 19 30 32 13 21 -12 -7 -33 29 -24 39 3 3 4 6 0 6 -3 0 -8 -4 -11 -9z"/>
<path d="M8486 2931 c-3 -4 1 -17 10 -27 14 -18 15 -18 5 2 -6 12 -7 24 -4 28
3 3 4 6 0 6 -3 0 -8 -4 -11 -9z"/>
<path d="M8526 2928 c3 -4 11 -5 19 -1 21 7 19 12 -4 10 -11 0 -18 -5 -15 -9z"/>
<path d="M7020 2916 c0 -16 -2 -17 -17 -5 -16 12 -16 12 -6 -1 6 -8 12 -19 13
-25 1 -5 4 -12 7 -15 4 -3 2 1 -2 9 -6 11 -4 13 8 8 19 -7 22 9 7 33 -8 13
-10 12 -10 -4z"/>
<path d="M8800 2913 c0 -4 5 -15 10 -23 8 -13 10 -13 10 2 0 9 -4 20 -10 23
-5 3 -10 3 -10 -2z"/>
<path d="M7235 2901 c-6 -11 9 -23 19 -14 9 9 7 23 -3 23 -6 0 -12 -4 -16 -9z"/>
<path d="M8529 2892 c6 -12 16 -24 22 -28 8 -4 8 -1 0 14 -6 12 -16 24 -22 28
-8 4 -8 1 0 -14z"/>
<path d="M7120 2890 c0 -5 7 -10 15 -10 8 0 15 5 15 10 0 6 -7 10 -15 10 -8 0
-15 -4 -15 -10z"/>
<path d="M7063 2839 c-2 -23 3 -25 10 -4 4 8 3 16 -1 19 -4 3 -9 -4 -9 -15z"/>
<path d="M7096 2845 c-3 -9 0 -15 9 -15 10 0 12 -6 8 -17 -7 -17 -6 -17 11 0
15 15 16 19 2 32 -8 8 -17 15 -19 15 -3 0 -7 -7 -11 -15z"/>
<path d="M7268 2843 c6 -2 9 -10 6 -15 -4 -7 -2 -8 5 -4 13 9 5 26 -12 25 -9
0 -8 -2 1 -6z"/>
<path d="M7200 2831 c0 -6 4 -13 10 -16 6 -3 7 1 4 9 -7 18 -14 21 -14 7z"/>
<path d="M7230 2831 c0 -5 7 -11 15 -15 8 -3 15 -1 15 3 0 5 -7 11 -15 15 -8
3 -15 1 -15 -3z"/>
<path d="M8586 2819 c14 -16 16 -23 6 -26 -6 -3 -10 -9 -7 -14 9 -14 32 14 27
33 -2 10 -8 15 -13 12 -5 -3 -9 0 -9 5 0 6 -5 11 -12 11 -6 0 -3 -10 8 -21z"/>
<path d="M8886 2831 c-3 -5 1 -14 8 -20 12 -10 13 -8 9 8 -6 23 -9 25 -17 12z"/>
<path d="M8845 2810 c4 -6 11 -8 16 -5 14 9 11 15 -7 15 -8 0 -12 -5 -9 -10z"/>
<path d="M8920 2812 c0 -4 4 -13 9 -20 7 -11 9 -11 14 1 3 9 -1 18 -9 21 -8 3
-14 2 -14 -2z"/>
<path d="M7185 2781 c-6 -11 13 -26 22 -17 4 3 1 6 -6 6 -7 0 -9 5 -6 10 3 6
4 10 1 10 -3 0 -7 -4 -11 -9z"/>
<path d="M7225 2760 c-3 -5 -1 -10 4 -10 6 0 11 5 11 10 0 6 -2 10 -4 10 -3 0
-8 -4 -11 -10z"/>
<path d="M8714 2681 c12 -11 18 -12 29 -3 8 7 17 9 20 5 4 -3 7 -1 7 6 0 7
-13 11 -35 9 -31 -2 -33 -4 -21 -17z"/>
<path d="M8680 2658 c0 -4 4 -8 9 -8 6 0 12 4 15 8 3 5 -1 9 -9 9 -8 0 -15 -4
-15 -9z"/>
<path d="M8890 2609 c0 -9 7 -22 15 -29 19 -16 19 0 0 26 -12 16 -14 16 -15 3z"/>
<path d="M8716 2598 c3 -5 10 -6 15 -3 13 9 11 12 -6 12 -8 0 -12 -4 -9 -9z"/>
<path d="M8750 2601 c0 -6 4 -13 10 -16 6 -3 7 1 4 9 -7 18 -14 21 -14 7z"/>
<path d="M8833 2524 c0 -18 24 -26 30 -9 3 7 -2 15 -12 18 -10 2 -18 -1 -18
-9z"/>
<path d="M8857 2461 c-4 -17 -3 -21 5 -13 5 5 8 16 6 23 -3 8 -7 3 -11 -10z"/>
<path d="M8880 2470 c0 -5 5 -10 11 -10 5 0 7 5 4 10 -3 6 -8 10 -11 10 -2 0
-4 -4 -4 -10z"/>
<path d="M9073 2441 c-27 -23 -28 -27 -7 -35 9 -3 12 -2 9 5 -4 6 1 19 11 30
22 24 16 24 -13 0z"/>
<path d="M8939 2363 c-13 -16 -12 -17 4 -4 16 13 21 21 13 21 -2 0 -10 -8 -17
-17z"/>
<path d="M8939 2333 c-13 -17 -13 -17 6 -3 11 8 22 16 24 17 2 2 0 3 -6 3 -6
0 -17 -8 -24 -17z"/>
</g>
</svg>
