<svg width="24" height="32" viewBox="0 0 24 32" fill="red" xmlns="http://www.w3.org/2000/svg">
<path fill-rule="evenodd" clip-rule="evenodd" d="M18 1.77778H22.2857C23.2286 1.77778 24 2.57778 24 3.55556C24 4.53333 23.2286 5.33333 22.2857 5.33333H1.71429C0.771429 5.33333 0 4.53333 0 3.55556C0 2.57778 0.771429 1.77778 1.71429 1.77778H6L7.21714 0.515556C7.52571 0.195556 7.97143 0 8.41714 0H15.5829C16.0286 0 16.4743 0.195556 16.7829 0.515556L18 1.77778ZM5.14244 32.0002C3.25672 32.0002 1.71387 30.4002 1.71387 28.4447V10.6669C1.71387 8.71133 3.25672 7.11133 5.14244 7.11133H18.8567C20.7424 7.11133 22.2853 8.71133 22.2853 10.6669V28.4447C22.2853 30.4002 20.7424 32.0002 18.8567 32.0002H5.14244Z" fill="#90A0B7"/>
</svg>
